<?xml version="1.0" encoding="UTF-8"?>
<svg xmlns="http://www.w3.org/2000/svg" xmlns:xlink="http://www.w3.org/1999/xlink" version="1.1" id="Ebene_1" x="0px" y="0px" viewBox="0 0 1053 189" style="enable-background:new 0 0 1053 189;" xml:space="preserve">
<style type="text/css">
	.Schlagschatten{fill:none;}
	.Schein_x0020_nach_x0020_außen_x0020__x002D__x0020_5_x0020_Pt_x002E_{fill:none;}
	.Blauer_x0020_Neonrahmen{fill:none;stroke:#8AACDA;stroke-width:7;stroke-linecap:round;stroke-linejoin:round;}
	.Lichter_x0020_Chrom{fill:url(#SVGID_1_);stroke:#FFFFFF;stroke-width:0.362861;stroke-miterlimit:1;}
	.Jive_GS{fill:#FFDD00;}
	.Alyssa_GS{fill:#A6D0E4;}
	.st0{fill:#A3A8B4;}
	.st1{fill:#63B180;}
	.st2{fill:#F29169;}
	.st3{fill:#E94B5A;}
	.st4{fill:#69B5CF;}
	.st5{fill:none;}
</style>
<linearGradient id="SVGID_1_" gradientUnits="userSpaceOnUse" x1="-1532" y1="-17" x2="-1532" y2="-18">
	<stop offset="0" style="stop-color:#656565"></stop>
	<stop offset="0.617977" style="stop-color:#1B1B1B"></stop>
	<stop offset="0.629213" style="stop-color:#545454"></stop>
	<stop offset="0.983146" style="stop-color:#3E3E3E"></stop>
</linearGradient>
<g>
	<g>
		<path class="st0" d="M348.7283936,147.9108734h29.4464722c1.5528259,0,2.4897156-1.7189178,1.6481934-3.023941    l-29.4464722-45.6657715c-1.0599365-1.6437836-3.6093445-0.8930969-3.6093445,1.0628052v45.6657562    C346.7672424,147.0328369,347.6452942,147.9108734,348.7283936,147.9108734z"></path>
		<path class="st0" d="M493.53302,95.623764h29.6686401c1.3513794,0,2.2978516-1.3347321,1.850708-2.6100006l-14.8343201-42.3114967    c-0.6134644-1.7497292-3.0879517-1.7497292-3.701416,0L491.682312,93.0137634    C491.235199,94.289032,492.1816406,95.623764,493.53302,95.623764z"></path>
		<path class="st0" d="M275.9693909,6.8673682v139.0776978c0,1.0831146,0.8780518,1.9611511,1.9611511,1.9611511h27.675354    c1.0831299,0,1.9611511-0.8780365,1.9611511-1.9611511V6.8673682c0-1.0831122-0.8780212-1.9611483-1.9611511-1.9611483h-27.675354    C276.8474426,4.90622,275.9693909,5.784256,275.9693909,6.8673682z"></path>
		<path class="st0" d="M68.8046722,147.9108734h39.652916c1.3797684,0,2.3281403-1.3870392,1.8274765-2.67276L81.6468964,71.6936493    c-0.7294235-1.8731842-3.4692535-1.5668793-3.7670059,0.4211426l-11.0147324,73.5444489    C66.6875916,146.8448334,67.6058655,147.9108734,68.8046722,147.9108734z"></path>
		<path class="st0" d="M399.5783997,4.9108567c-1.9623718,0-2.7089233,2.5691843-1.0457153,3.6106677    c2.8308716,1.7726727,5.3437195,3.8053656,7.5343628,6.1022224c4.065918,4.2685547,7.1313477,9.2001953,9.2001953,14.7998047    c2.0654297,5.6000996,3.1000977,11.6000996,3.1000977,18.0000019c0,11.46875-2.769043,20.769043-8.300293,27.9003906    c-5.0403137,6.4976425-12.2633362,11.087616-21.6716003,13.7673416c-1.3339844,0.3799591-1.8749695,1.9757233-1.0308228,3.0763092    l41.1914368,53.7046585c0.9343262,1.2181854,2.8428345,0.9389191,3.3889771-0.4958954L484.3993225,7.5696592    c0.4885559-1.2835579-0.4594727-2.6588025-1.8328552-2.6588025H399.5783997z"></path>
		<path class="st0" d="M371.9674377,35.8239632c-4.1347656-3.2001953-10.0688477-4.800293-17.800293-4.800293h-5.4387512    c-1.0830994,0-1.9611511,0.8780346-1.9611511,1.9611473v33.2779007c0,1.0831146,0.8780518,1.9611435,1.9611511,1.9611435    h5.4387512c7.7314453,0,13.6655273-1.6000977,17.800293-4.8002892c4.1308594-3.199707,6.199707-7.7998047,6.199707-13.7998047    S376.0982971,39.0236702,371.9674377,35.8239632z"></path>
		<path class="st1" d="M594.5641479,107.9235687c-4.3994141-9.7998047-6.5996094-20.5-6.5996094-32.0996094    c0-11.6000977,2.1660156-22.2314415,6.5-31.9003868c4.3310547-9.6655273,10.1308594-18,17.4003906-25    c4.1107178-3.9604349,8.6018677-7.4209061,13.4641724-10.3942547c1.677063-1.0255742,0.9199829-3.6184411-1.0458984-3.6184411    h-90.116333c-1.3734131,0-2.3214722,1.3752489-1.8328857,2.6588073l52.9384766,139.0776978    c0.2895508,0.7607117,1.0189209,1.2634888,1.8328857,1.2634888h38.0159302c1.9849854,0,2.7076416-2.6017609,1.0115967-3.6330566    c-5.0855713-3.092392-9.7776489-6.7406311-14.0687256-10.9538574    C604.7955933,126.1921234,598.9645386,117.7233734,594.5641479,107.9235687z"></path>
		<path class="st0" d="M147.2219696,4.9108768H95.7384949c-1.3697433,0-2.3175583,1.3684926-1.835907,2.6507587    l25.8273392,68.7583694c0.6375732,1.6973572,3.039444,1.6947403,3.6733093-0.0040131l25.6561508-68.7583694    C149.5375977,6.2760139,148.5899048,4.9108768,147.2219696,4.9108768z"></path>
		<path class="st2" d="M1042.3253174,4.9553514h-21.0777588c-1.0831299,0-1.9611816,0.8780522-1.9611206,1.961175    l1.0012817,97.0331726c0,1.0831223-0.8779907,1.961174-1.9611206,1.961174h-21.0776978    c-1.0831299,0-1.9611816-0.8780136-1.9611816-1.9611206L994.786438,6.4164729    c-0.000061-1.0831017-0.8780518-1.9611216-1.9611816-1.9611216h-21.0776978c-1.0831299,0-1.9611816,0.8780522-1.9611206,1.961175    l0.5012817,97.5331726c0,1.0831223-0.8779907,1.961174-1.9611206,1.961174h-21.0776978    c-1.0831299,0-1.9611816-0.8780136-1.9611816-1.9611206L945.286438,8.9164734    c-0.000061-1.0831022-0.8780518-3.961122-1.9611816-3.961122h-21.003418c-1.0831299,0-1.9611816,0.8780923-1.9611206,1.9612408    l0.0011597,25.1458359c0.000061,1.083149-0.8779907,1.9612427-1.9611206,1.9612427h-42.6772461    c-1.0831299,0-1.9611206,0.8780365-1.9611206,1.9611473v21.2779007c0,1.0831108,0.8779907,1.9611473,1.9611206,1.9611473    h40.0776978c1.0831299,0,1.9611816,0.8780365,1.9611816,1.9611473v29.2774124    c0,1.0831146-0.8780518,1.9611435-1.9611816,1.9611435h-40.0776978c-1.0831299,0-1.9611206,0.8780365-1.9611206,1.9611511    v22.0777054c0,1.0831146,0.8779907,1.9611435,1.9611206,1.9611435h42.6773071    c1.0831299,0,1.9611816,0.8780365,1.9611816,1.9611511v26.5650024c0,1.0831146,0.8779907,1.9611511,1.9611206,1.9611511    h121.003418c1.0831299,0,1.9611816-0.8780518,1.9611816-1.9611664L1044.286377,6.916481    C1044.286377,5.8333759,1043.4083252,4.9553514,1042.3253174,4.9553514z"></path>
		<path class="st0" d="M479.9125366,126.7475891l-6.3772583,18.5650024    c-0.4373474,1.2731323,0.5086365,2.5982819,1.8547668,2.5982819h65.9551086c1.3461304,0,2.2921143-1.3251495,1.8547363-2.5982819    l-6.3772583-18.5650024c-0.2720947-0.7921219-1.0172119-1.3240204-1.8547363-1.3240204h-53.200592    C480.9297485,125.4235687,480.1846313,125.9554672,479.9125366,126.7475891z"></path>
		<path class="st0" d="M192.504425,7.1815076l22.5698395,139.0823669c0.154068,0.9494324,0.9739685,1.6470032,1.9358215,1.6470032    h17.7979736c1.0831146,0,1.9611359-0.8780365,1.9611359-1.9611511V6.8673682c0-1.0831122-0.8780212-1.9611483-1.9611359-1.9611483    h-40.3678131C193.2317657,4.90622,192.3108521,5.9886336,192.504425,7.1815076z"></path>
		<path class="st3" d="M767.3629761,5.872025v110.5904007c0,1.0831146,0.8779907,1.9611435,1.9611206,1.9611435h43.0776978    c1.0831299,0,1.9611816,0.8780365,1.9611816,1.9611511v26.0421753c0,1.0831146,0.8779907,1.9611511,1.9611206,1.9611511    h16.2769165c1.0831299,0,1.9611816-0.8780365,1.9611816-1.9611511V5.872025c0-1.0831122-0.8780518-1.9611483-1.9611816-1.9611483    h-63.2769165C768.2409668,3.9108768,767.3629761,4.7889128,767.3629761,5.872025z"></path>
		<path class="st0" d="M132.8186035,147.9108734h41.3204041c1.1988068,0,2.1170807-1.06604,1.9395142-2.2516327    l-11.0527649-73.798317c-0.2949982-1.9696884-2.9982147-2.296402-3.7539825-0.4537048l-30.2676392,73.798317    C130.474884,146.4959717,131.4238586,147.9108734,132.8186035,147.9108734z"></path>
		<path class="st4" d="M703.2020264,5.8380265l0.1439819,40.2406578c0.0065308,1.7702217-2.1324463,2.6233902-3.3752441,1.3627472    c-8.4235229-8.5445595-18.4923096-12.8176651-30.2064209-12.8176651c-5.8681641,0-11.2998047,1.0688477-16.2998047,3.2001953    c-5,2.1342773-9.2998047,5.0341797-12.9003906,8.699707c-3.5996094,3.6689453-6.4335938,8.034668-8.5,13.1000977    c-2.0683594,5.0688438-3.0996094,10.5341759-3.0996094,16.3998985c0,6,1.03125,11.534668,3.0996094,16.6000977    c2.0664062,5.0688477,4.9316406,9.46875,8.6005859,13.2001953c3.6650391,3.734375,7.9658203,6.668457,12.8994141,8.7998047    c4.9316406,2.1347656,10.265625,3.2001953,16,3.2001953c11.1731567,0,21.3433228-4.2385559,30.5048218-12.7194901    c1.2575684-1.1641159,3.2959595-0.2849655,3.2959595,1.4286804v39.4165726c0,1.0831146,0.8779907,1.9611511,1.9611206,1.9611511    h20.87323c1.0840454,0,1.9624023-0.8794556,1.9611206-1.9634705L727.9949951,5.8284993    c-0.0012817-1.082201-0.8789062-1.9588165-1.9611206-1.9588165H705.163208    C704.0772705,3.8696828,703.1980591,4.7521105,703.2020264,5.8380265z"></path>
	</g>
	<path class="st0" d="M29.1044617,131.9000244"></path>
</g>
<path class="st0" d="M51.6432533,7.1814594L29.0734138,146.2638245c-0.1540718,0.9494324-0.9739666,1.6470032-1.9358253,1.6470032  H2.3396182c-1.0831124,0-1.9611483-0.8780365-1.9611483-1.9611511V6.8673196c0-1.0831122,0.878036-1.9611478,1.9611483-1.9611478  H49.707428C50.915905,4.9061718,51.8368263,5.9885855,51.6432533,7.1814594z"></path>
<g>
	<rect x="396.538147" y="171.8664093" class="st5" width="647.692688" height="39.6722527"></rect>
	<path class="st0" d="M435.3681641,162.9770508l10.3662109,22.2094727l10.4746094-22.2094727l2.7363281,24.8369141h-1.5839844   l-2.1601562-19.293457l-9.4667969,20.1572266l-9.3945312-20.1572266l-2.0878906,19.293457h-1.5839844L435.3681641,162.9770508z"></path>
	<path class="st0" d="M466.7597656,187.8139648h-1.5478516v-24.0087891h1.5478516V187.8139648z"></path>
	<path class="st0" d="M473.2392578,163.5532227l20.1582031,21.0932617v-20.8413086h1.5478516v24.6206055l-20.1582031-21.0932617   v20.4814453h-1.5478516V163.5532227z"></path>
	<path class="st0" d="M502.9746094,187.8139648h-1.5478516v-24.0087891h1.5478516V187.8139648z"></path>
	<path class="st0" d="M511.9023438,162.9770508l10.3662109,22.2094727l10.4746094-22.2094727l2.7363281,24.8369141h-1.5839844   l-2.1601562-19.293457l-9.4667969,20.1572266l-9.3945312-20.1572266l-2.0878906,19.293457h-1.5839844L511.9023438,162.9770508z"></path>
	<path class="st0" d="M543.90625,179.9311523l-3.2041016,7.8828125h-1.7275391l10.0791016-24.7290039l10.0068359,24.7290039   h-1.7636719l-3.1679688-7.8828125H543.90625z M549.0537109,167.1166992l-4.5712891,11.3745117h9.0703125L549.0537109,167.1166992z"></path>
	<path class="st0" d="M564.3183594,186.3740234h6.0839844v1.4399414h-7.6318359v-24.0087891h1.5478516V186.3740234z"></path>
	<path class="st0" d="M575.6582031,186.3740234h6.0839844v1.4399414h-7.6318359v-24.0087891h1.5478516V186.3740234z"></path>
	<path class="st0" d="M581.0234375,163.8051758h1.7998047l6.8388672,12.0581055l7.0195312-12.0581055h1.8359375l-8.0996094,13.75   v10.2587891h-1.546875v-10.2587891L581.0234375,163.8051758z"></path>
	<path class="st0" d="M612.8466797,187.8139648h-1.5478516v-24.0087891h1.5478516V187.8139648z"></path>
	<path class="st0" d="M619.3261719,163.5532227l20.1582031,21.0932617v-20.8413086h1.5478516v24.6206055l-20.1582031-21.0932617   v20.4814453h-1.5478516V163.5532227z"></path>
	<path class="st0" d="M653.4892578,184.0703125l6.9111328-20.2651367h1.65625l-8.5673828,24.9804688l-8.7470703-24.9804688   h1.7275391L653.4892578,184.0703125z"></path>
	<path class="st0" d="M666.5214844,179.9311523l-3.2041016,7.8828125h-1.7275391l10.0791016-24.7290039l10.0068359,24.7290039   h-1.7636719l-3.1679688-7.8828125H666.5214844z M671.6689453,167.1166992l-4.5712891,11.3745117h9.0703125L671.6689453,167.1166992   z"></path>
	<path class="st0" d="M696.2929688,167.8364258c-1.3681641-2.0878906-2.6640625-2.8793945-4.7158203-2.8793945   c-2.5556641,0-4.4990234,1.9794922-4.4990234,4.5351562c0,1.9438477,0.9716797,2.987793,4.2470703,4.5712891   c3.0234375,1.4399414,3.7080078,1.7998047,4.7871094,2.4838867c1.65625,1.0800781,2.5205078,2.6635742,2.5205078,4.6074219   c0,3.8876953-3.3837891,7.0551758-7.5234375,7.0551758c-3.2753906,0-5.6513672-1.7280273-7.0546875-5.1474609l1.3310547-0.6479492   c0.5761719,1.2241211,0.8642578,1.7280273,1.3320312,2.3037109c1.0078125,1.2241211,2.7001953,2.015625,4.4277344,2.015625   c3.203125,0,5.8671875-2.5556641,5.8671875-5.5791016c0-1.5478516-0.828125-2.8076172-2.3398438-3.7075195   c-0.7919922-0.4677734-0.9355469-0.5039062-4.4638672-2.2675781c-3.6347656-1.7998047-4.7509766-3.1318359-4.7509766-5.7236328   c0-3.4555664,2.5917969-5.9750977,6.1552734-5.9750977c2.4833984,0,4.5712891,1.2241211,5.8310547,3.4194336   L696.2929688,167.8364258z"></path>
	<path class="st0" d="M705.3652344,187.8139648h-1.5478516v-24.0087891h1.5478516V187.8139648z"></path>
	<path class="st0" d="M717.8203125,184.0703125l6.9111328-20.2651367h1.65625l-8.5673828,24.9804688l-8.7470703-24.9804688   h1.7275391L717.8203125,184.0703125z"></path>
	<path class="st0" d="M731.6806641,165.2446289v8.7109375h9.71875v1.4399414h-9.71875v10.9785156h9.9345703v1.4399414h-11.4824219   v-24.0087891h11.4824219v1.4394531H731.6806641z"></path>
	<path class="st0" d="M757.3486328,186.3740234h6.0839844v1.4399414h-7.6318359v-24.0087891h1.5478516V186.3740234z"></path>
	<path class="st0" d="M769.3007812,179.9311523l-3.2041016,7.8828125h-1.7275391l10.0791016-24.7290039l10.0068359,24.7290039   h-1.7636719l-3.1679688-7.8828125H769.3007812z M774.4482422,167.1166992l-4.5712891,11.3745117h9.0703125L774.4482422,167.1166992   z"></path>
	<path class="st0" d="M799.0722656,167.8364258c-1.3681641-2.0878906-2.6640625-2.8793945-4.7158203-2.8793945   c-2.5556641,0-4.4990234,1.9794922-4.4990234,4.5351562c0,1.9438477,0.9716797,2.987793,4.2470703,4.5712891   c3.0234375,1.4399414,3.7080078,1.7998047,4.7871094,2.4838867c1.65625,1.0800781,2.5205078,2.6635742,2.5205078,4.6074219   c0,3.8876953-3.3837891,7.0551758-7.5234375,7.0551758c-3.2753906,0-5.6513672-1.7280273-7.0546875-5.1474609l1.3310547-0.6479492   c0.5761719,1.2241211,0.8642578,1.7280273,1.3320312,2.3037109c1.0078125,1.2241211,2.7001953,2.015625,4.4277344,2.015625   c3.203125,0,5.8671875-2.5556641,5.8671875-5.5791016c0-1.5478516-0.828125-2.8076172-2.3398438-3.7075195   c-0.7919922-0.4677734-0.9355469-0.5039062-4.4638672-2.2675781c-3.6347656-1.7998047-4.7509766-3.1318359-4.7509766-5.7236328   c0-3.4555664,2.5917969-5.9750977,6.1552734-5.9750977c2.4833984,0,4.5712891,1.2241211,5.8310547,3.4194336   L799.0722656,167.8364258z"></path>
	<path class="st0" d="M808.1445312,165.2446289v8.7109375h9.71875v1.4399414h-9.71875v10.9785156h9.9345703v1.4399414h-11.4824219   v-24.0087891h11.4824219v1.4394531H808.1445312z"></path>
	<path class="st0" d="M835.1435547,187.8139648h-1.9082031l-7.703125-11.3383789H824.8125v11.3383789h-1.5478516v-24.0087891   h3.3837891c2.4482422,0,3.8154297,0.3237305,5.0751953,1.2236328c1.5478516,1.0800781,2.4121094,2.9155273,2.4121094,5.1474609   c0,2.4833984-1.1162109,4.4633789-3.0234375,5.5073242c-0.9365234,0.5039062-1.9082031,0.6835938-3.8154297,0.7919922   L835.1435547,187.8139648z M827.1162109,175.0356445c3.4560547,0,5.4355469-1.7998047,5.4355469-4.8955078   c0-1.871582-0.828125-3.4555664-2.1240234-4.175293c-0.8994141-0.5039062-2.0869141-0.7202148-3.6347656-0.7202148H824.8125   v9.7910156H827.1162109z"></path>
	<path class="st0" d="M872.6171875,175.8276367c0,6.8032227-5.6513672,12.3823242-12.5263672,12.3823242   c-6.7666016,0-12.3457031-5.6875-12.3457031-12.5625c0-6.5151367,5.7587891-12.1665039,12.4179688-12.1665039   C866.9658203,163.480957,872.6171875,169.0961914,872.6171875,175.8276367z M849.3642578,175.6835938   c0,3.2036133,1.1884766,6.0112305,3.4921875,8.1347656c2.015625,1.8359375,4.6787109,2.9155273,7.234375,2.9155273   c6.0117188,0,10.9072266-4.8950195,10.9072266-10.90625c0-5.9394531-4.9316406-10.8706055-10.8349609-10.8706055   C854.3320312,164.9570312,849.3642578,169.8881836,849.3642578,175.6835938z"></path>
	<path class="st0" d="M888.7109375,167.8364258c-1.3681641-2.0878906-2.6640625-2.8793945-4.7158203-2.8793945   c-2.5556641,0-4.4990234,1.9794922-4.4990234,4.5351562c0,1.9438477,0.9716797,2.987793,4.2470703,4.5712891   c3.0234375,1.4399414,3.7080078,1.7998047,4.7871094,2.4838867c1.65625,1.0800781,2.5205078,2.6635742,2.5205078,4.6074219   c0,3.8876953-3.3837891,7.0551758-7.5234375,7.0551758c-3.2753906,0-5.6513672-1.7280273-7.0546875-5.1474609l1.3310547-0.6479492   c0.5761719,1.2241211,0.8642578,1.7280273,1.3320312,2.3037109c1.0078125,1.2241211,2.7001953,2.015625,4.4277344,2.015625   c3.203125,0,5.8671875-2.5556641,5.8671875-5.5791016c0-1.5478516-0.828125-2.8076172-2.3398438-3.7075195   c-0.7919922-0.4677734-0.9355469-0.5039062-4.4638672-2.2675781c-3.6347656-1.7998047-4.7509766-3.1318359-4.7509766-5.7236328   c0-3.4555664,2.5917969-5.9750977,6.1552734-5.9750977c2.4833984,0,4.5712891,1.2241211,5.8310547,3.4194336   L888.7109375,167.8364258z"></path>
	<path class="st0" d="M900.7714844,187.8139648h-1.5478516v-22.5693359h-6.1552734v-1.4394531h13.9667969v1.4394531h-6.2636719   V187.8139648z"></path>
	<path class="st0" d="M912.3271484,165.2446289v8.7109375h9.71875v1.4399414h-9.71875v10.9785156h9.9345703v1.4399414h-11.4824219   v-24.0087891h11.4824219v1.4394531H912.3271484z"></path>
	<path class="st0" d="M950.8808594,175.8276367c0,6.8032227-5.6513672,12.3823242-12.5263672,12.3823242   c-6.7666016,0-12.3457031-5.6875-12.3457031-12.5625c0-6.5151367,5.7587891-12.1665039,12.4179688-12.1665039   C945.2294922,163.480957,950.8808594,169.0961914,950.8808594,175.8276367z M927.6279297,175.6835938   c0,3.2036133,1.1884766,6.0112305,3.4921875,8.1347656c2.015625,1.8359375,4.6787109,2.9155273,7.234375,2.9155273   c6.0117188,0,10.9072266-4.8950195,10.9072266-10.90625c0-5.9394531-4.9316406-10.8706055-10.8349609-10.8706055   C932.5957031,164.9570312,927.6279297,169.8881836,927.6279297,175.6835938z"></path>
	<path class="st0" d="M959.5595703,187.8139648h-1.5478516v-22.5693359h-6.1552734v-1.4394531h13.9667969v1.4394531h-6.2636719   V187.8139648z"></path>
	<path class="st0" d="M991.4882812,175.8276367c0,6.8032227-5.6513672,12.3823242-12.5263672,12.3823242   c-6.7666016,0-12.3457031-5.6875-12.3457031-12.5625c0-6.5151367,5.7587891-12.1665039,12.4179688-12.1665039   C985.8369141,163.480957,991.4882812,169.0961914,991.4882812,175.8276367z M968.2353516,175.6835938   c0,3.2036133,1.1884766,6.0112305,3.4921875,8.1347656c2.015625,1.8359375,4.6787109,2.9155273,7.234375,2.9155273   c6.0117188,0,10.9072266-4.8950195,10.9072266-10.90625c0-5.9394531-4.9316406-10.8706055-10.8349609-10.8706055   C973.203125,164.9570312,968.2353516,169.8881836,968.2353516,175.6835938z"></path>
	<path class="st0" d="M999.1230469,162.9770508l10.3662109,22.2094727l10.4746094-22.2094727l2.7363281,24.8369141h-1.5839844   l-2.1601562-19.293457l-9.4667969,20.1572266l-9.3945312-20.1572266l-2.0878906,19.293457h-1.5839844L999.1230469,162.9770508z"></path>
	<path class="st0" d="M1026.1953125,163.8051758h1.7998047l6.8388672,12.0581055l7.0195312-12.0581055h1.8359375l-8.0996094,13.75   v10.2587891h-1.546875v-10.2587891L1026.1953125,163.8051758z"></path>
</g>
<g>
</g>
<g>
</g>
<g>
</g>
<g>
</g>
<g>
</g>
<g>
</g>
<g>
</g>
<g>
</g>
<g>
</g>
<g>
</g>
<g>
</g>
<g>
</g>
<g>
</g>
<g>
</g>
<g>
</g>
</svg>
